<svg xmlns="http://www.w3.org/2000/svg" width="32" height="32" viewBox="0 0 32 32">
    <g fill="none" fill-rule="evenodd">
        <g>
            <g>
                <g>
                    <path d="M0 0H32V32H0z" transform="translate(-968 -10781) translate(0 10649) translate(968 132)"/>
                    <path stroke="#212121" stroke-width="1.333" d="M13.879 9.027c.52.52.52 1.364 0 1.885l-.943.943c-.52.52-.52 1.365 0 1.886l5.657 5.656c.52.521 1.365.521 1.885 0l.943-.942h0c.52-.521 1.365-.521 1.886 0l2.828 2.828c.52.52.52 1.365 0 1.886l-.943.943c-2.033 2.033-5.509 1.09-7.07-.472l-9.429-9.428c-1.562-1.562-2.505-5.038-.471-7.071l.943-.943c.52-.52 1.365-.52 1.885 0l2.829 2.829z" transform="translate(-968 -10781) translate(0 10649) translate(968 132)"/>
                </g>
            </g>
        </g>
    </g>
</svg>
